<svg width="18" height="21" viewBox="0 0 18 21" fill="none" xmlns="http://www.w3.org/2000/svg">
<path d="M12.5 3H15C15.5304 3 16.0391 3.21071 16.4142 3.58579C16.7893 3.96086 17 4.46957 17 5V18C17 18.5304 16.7893 19.0391 16.4142 19.4142C16.0391 19.7893 15.5304 20 15 20H3C2.46957 20 1.96086 19.7893 1.58579 19.4142C1.21071 19.0391 1 18.5304 1 18V5C1 4.46957 1.21071 3.96086 1.58579 3.58579C1.96086 3.21071 2.46957 3 3 3H5.5" stroke="#FCA311" stroke-width="2" stroke-linecap="round" stroke-linejoin="round"/>
<path d="M5.621 2.515C5.72915 2.08232 5.97882 1.69821 6.33033 1.4237C6.68184 1.1492 7.11501 1.00007 7.561 1H10.438C10.884 1.00007 11.3172 1.1492 11.6687 1.4237C12.0202 1.69821 12.2698 2.08232 12.378 2.515L13 5H5L5.621 2.515Z" stroke="#FCA311" stroke-width="2" stroke-linecap="round" stroke-linejoin="round"/>
<path d="M6 15H12M6 11H12H6Z" stroke="#FCA311" stroke-width="2" stroke-linecap="round"/>
</svg>
