<svg width="433" height="92" viewBox="0 0 433 92" fill="none" xmlns="http://www.w3.org/2000/svg">
<path d="M20.4506 15.4957C15.9606 16.7331 11.5012 18.0787 7.07616 19.5311C6.6721 19.662 6.31292 19.9038 6.03954 20.2288C5.76615 20.5539 5.58956 20.9492 5.52988 21.3697C2.91817 40.967 8.95245 55.2654 16.1512 64.6845C19.199 68.7124 22.8332 72.2608 26.9327 75.2115C28.5639 76.3618 30.0064 77.1915 31.1426 77.7242C31.7083 77.9929 32.1703 78.1721 32.5239 78.2805C32.6785 78.3348 32.8379 78.3742 33 78.3984C33.1602 78.3723 33.3179 78.3329 33.4714 78.2805C33.8297 78.1721 34.2917 77.9929 34.8574 77.7242C35.9889 77.1915 37.4361 76.3571 39.0673 75.2115C43.1667 72.2607 46.8009 68.7123 49.8488 64.6845C57.0475 55.2701 63.0818 40.967 60.4701 21.3697C60.411 20.949 60.2346 20.5534 59.9611 20.2283C59.6877 19.9031 59.3282 19.6615 58.9238 19.5311C55.8548 18.527 50.6738 16.8911 45.5494 15.5004C40.3166 14.0814 35.5033 13.0301 33 13.0301C30.5014 13.0301 25.6834 14.0814 20.4506 15.5004V15.4957ZM19.1966 10.64C24.3116 9.24928 29.7471 8 33 8C36.2528 8 41.6884 9.24928 46.8034 10.64C52.0363 12.0543 57.3115 13.7279 60.4135 14.7414C61.7105 15.1697 62.8603 15.9552 63.7309 17.0076C64.6015 18.06 65.1576 19.3366 65.3353 20.6908C68.145 41.7967 61.6251 57.4387 53.7146 67.7865C50.3601 72.2131 46.3602 76.1113 41.8487 79.3507C40.2887 80.4716 38.6358 81.4573 36.9081 82.2971C35.5881 82.9194 34.1691 83.4285 33 83.4285C31.8309 83.4285 30.4166 82.9194 29.0919 82.2971C27.3641 81.4574 25.7113 80.4716 24.1513 79.3507C19.6399 76.1112 15.64 72.213 12.2854 67.7865C4.37488 57.4387 -2.14497 41.7967 0.664739 20.6908C0.842407 19.3366 1.39848 18.06 2.26909 17.0076C3.13969 15.9552 4.28951 15.1697 5.58645 14.7414C10.0895 13.265 14.6275 11.8974 19.1966 10.64V10.64Z" fill="#FCA311"/>
<path d="M40.0714 38.6429C40.0722 40.1058 39.6192 41.533 38.7748 42.7277C37.9305 43.9225 36.7364 44.8259 35.3571 45.3136L37.1721 54.695C37.2382 55.0362 37.2279 55.3878 37.1421 55.7246C37.0564 56.0614 36.8972 56.375 36.676 56.6431C36.4548 56.9112 36.177 57.127 35.8626 57.2751C35.5482 57.4233 35.205 57.5001 34.8574 57.5H31.1426C30.7954 57.4994 30.4527 57.4221 30.1389 57.2736C29.8251 57.1252 29.5479 56.9093 29.3272 56.6413C29.1065 56.3733 28.9478 56.0599 28.8622 55.7234C28.7767 55.387 28.7666 55.0358 28.8326 54.695L30.6428 45.3136C29.4207 44.8815 28.3409 44.1218 27.5213 43.1175C26.7017 42.1132 26.174 40.9029 25.9957 39.619C25.8175 38.335 25.9956 37.0268 26.5106 35.8372C27.0255 34.6476 27.8576 33.6225 28.9158 32.8738C29.974 32.1252 31.2176 31.6818 32.5108 31.5921C33.8039 31.5024 35.0968 31.7699 36.2483 32.3653C37.3997 32.9608 38.3653 33.8612 39.0395 34.9684C39.7138 36.0755 40.0707 37.3466 40.0714 38.6429V38.6429Z" fill="#FCA311"/>
<path d="M110.527 32.532C105.513 32.532 103.006 34.188 103.006 37.5C103.006 38.972 103.627 40.099 104.869 40.881C106.111 41.663 109.009 42.79 113.563 44.262C118.163 45.734 121.383 47.413 123.223 49.299C125.063 51.139 125.983 53.991 125.983 57.855C125.983 62.777 124.488 66.503 121.498 69.033C118.508 71.563 114.598 72.828 109.768 72.828C106.18 72.828 101.787 72.276 96.589 71.172L94.105 70.689L95.071 63.306C101.235 64.134 105.95 64.548 109.216 64.548C114.092 64.548 116.53 62.524 116.53 58.476C116.53 57.004 115.955 55.854 114.805 55.026C113.701 54.198 111.47 53.301 108.112 52.335C102.776 50.817 99.004 49.023 96.796 46.953C94.634 44.837 93.553 41.916 93.553 38.19C93.553 33.498 94.979 30.002 97.831 27.702C100.683 25.402 104.593 24.252 109.561 24.252C112.965 24.252 117.289 24.712 122.533 25.632L125.017 26.115L124.258 33.636C117.772 32.9 113.195 32.532 110.527 32.532ZM140.4 58.683C140.446 60.799 140.998 62.34 142.056 63.306C143.16 64.226 144.724 64.686 146.748 64.686C151.026 64.686 154.844 64.548 158.202 64.272L160.134 64.065L160.272 70.896C154.982 72.184 150.198 72.828 145.92 72.828C140.722 72.828 136.95 71.448 134.604 68.688C132.258 65.928 131.085 61.443 131.085 55.233C131.085 42.859 136.168 36.672 146.334 36.672C156.362 36.672 161.376 41.87 161.376 52.266L160.686 58.683H140.4ZM152.268 51.645C152.268 48.885 151.831 46.976 150.957 45.918C150.083 44.814 148.542 44.262 146.334 44.262C144.172 44.262 142.631 44.837 141.711 45.987C140.837 47.091 140.377 48.977 140.331 51.645H152.268ZM180.887 36.672C183.279 36.672 186.338 37.04 190.064 37.776L191.927 38.19L191.651 45.504C188.017 45.136 185.326 44.952 183.578 44.952C180.404 44.952 178.288 45.642 177.23 47.022C176.218 48.356 175.712 50.909 175.712 54.681C175.712 58.453 176.218 61.052 177.23 62.478C178.288 63.858 180.427 64.548 183.647 64.548L191.651 63.996L191.927 71.379C187.005 72.345 183.256 72.828 180.68 72.828C175.574 72.828 171.894 71.402 169.64 68.55C167.432 65.652 166.328 61.029 166.328 54.681C166.328 48.333 167.478 43.756 169.778 40.95C172.078 38.098 175.781 36.672 180.887 36.672ZM219.133 37.5H228.379V72H219.202V70.068C215.89 71.908 213.015 72.828 210.577 72.828C205.793 72.828 202.573 71.517 200.917 68.895C199.261 66.227 198.433 61.788 198.433 55.578V37.5H207.679V55.716C207.679 59.12 207.955 61.443 208.507 62.685C209.059 63.927 210.393 64.548 212.509 64.548C214.533 64.548 216.442 64.226 218.236 63.582L219.133 63.306V37.5ZM236.917 72V37.5H246.094V41.157C249.958 38.857 253.638 37.362 257.134 36.672V45.987C253.408 46.769 250.211 47.574 247.543 48.402L246.163 48.885V72H236.917ZM270.18 58.683C270.226 60.799 270.778 62.34 271.836 63.306C272.94 64.226 274.504 64.686 276.528 64.686C280.806 64.686 284.624 64.548 287.982 64.272L289.914 64.065L290.052 70.896C284.762 72.184 279.978 72.828 275.7 72.828C270.502 72.828 266.73 71.448 264.384 68.688C262.038 65.928 260.865 61.443 260.865 55.233C260.865 42.859 265.948 36.672 276.114 36.672C286.142 36.672 291.156 41.87 291.156 52.266L290.466 58.683H270.18ZM282.048 51.645C282.048 48.885 281.611 46.976 280.737 45.918C279.863 44.814 278.322 44.262 276.114 44.262C273.952 44.262 272.411 44.837 271.491 45.987C270.617 47.091 270.157 48.977 270.111 51.645H282.048Z" fill="white"/>
<path d="M316.807 55.923H304.663V72H299.35V24.252H316.807C322.005 24.252 325.846 25.517 328.33 28.047C330.814 30.577 332.056 34.441 332.056 39.639C332.056 50.495 326.973 55.923 316.807 55.923ZM304.663 51.231H316.738C323.316 51.231 326.605 47.367 326.605 39.639C326.605 35.959 325.823 33.268 324.259 31.566C322.695 29.818 320.188 28.944 316.738 28.944H304.663V51.231ZM363.375 47.919V65.583C363.513 67.285 364.847 68.297 367.377 68.619L367.17 72.69C363.536 72.69 360.799 71.77 358.959 69.93C354.819 71.77 350.679 72.69 346.539 72.69C343.365 72.69 340.95 71.793 339.294 69.999C337.638 68.205 336.81 65.629 336.81 62.271C336.81 58.913 337.661 56.452 339.363 54.888C341.065 53.278 343.733 52.289 347.367 51.921L358.2 50.886V47.919C358.2 45.573 357.694 43.894 356.682 42.882C355.67 41.87 354.29 41.364 352.542 41.364C348.862 41.364 345.044 41.594 341.088 42.054L338.949 42.261L338.742 38.328C343.802 37.316 348.287 36.81 352.197 36.81C356.107 36.81 358.936 37.707 360.684 39.501C362.478 41.295 363.375 44.101 363.375 47.919ZM342.123 61.995C342.123 66.227 343.871 68.343 347.367 68.343C350.495 68.343 353.577 67.814 356.613 66.756L358.2 66.204V54.819L347.988 55.785C345.918 55.969 344.423 56.567 343.503 57.579C342.583 58.591 342.123 60.063 342.123 61.995ZM384.418 41.433C379.404 41.433 376.897 43.181 376.897 46.677C376.897 48.287 377.472 49.437 378.622 50.127C379.772 50.771 382.394 51.461 386.488 52.197C390.582 52.887 393.48 53.876 395.182 55.164C396.884 56.452 397.735 58.867 397.735 62.409C397.735 65.951 396.585 68.55 394.285 70.206C392.031 71.862 388.719 72.69 384.349 72.69C381.497 72.69 378.139 72.368 374.275 71.724L372.205 71.379L372.481 66.894C377.725 67.676 381.681 68.067 384.349 68.067C387.017 68.067 389.041 67.653 390.421 66.825C391.847 65.951 392.56 64.525 392.56 62.547C392.56 60.523 391.962 59.166 390.766 58.476C389.57 57.74 386.948 57.05 382.9 56.406C378.852 55.762 375.977 54.819 374.275 53.577C372.573 52.335 371.722 50.035 371.722 46.677C371.722 43.319 372.895 40.835 375.241 39.225C377.633 37.615 380.6 36.81 384.142 36.81C386.948 36.81 390.467 37.132 394.699 37.776L396.631 38.121L396.493 42.537C391.387 41.801 387.362 41.433 384.418 41.433ZM416.492 41.433C411.478 41.433 408.971 43.181 408.971 46.677C408.971 48.287 409.546 49.437 410.696 50.127C411.846 50.771 414.468 51.461 418.562 52.197C422.656 52.887 425.554 53.876 427.256 55.164C428.958 56.452 429.809 58.867 429.809 62.409C429.809 65.951 428.659 68.55 426.359 70.206C424.105 71.862 420.793 72.69 416.423 72.69C413.571 72.69 410.213 72.368 406.349 71.724L404.279 71.379L404.555 66.894C409.799 67.676 413.755 68.067 416.423 68.067C419.091 68.067 421.115 67.653 422.495 66.825C423.921 65.951 424.634 64.525 424.634 62.547C424.634 60.523 424.036 59.166 422.84 58.476C421.644 57.74 419.022 57.05 414.974 56.406C410.926 55.762 408.051 54.819 406.349 53.577C404.647 52.335 403.796 50.035 403.796 46.677C403.796 43.319 404.969 40.835 407.315 39.225C409.707 37.615 412.674 36.81 416.216 36.81C419.022 36.81 422.541 37.132 426.773 37.776L428.705 38.121L428.567 42.537C423.461 41.801 419.436 41.433 416.492 41.433Z" fill="#FCA311"/>
</svg>
